<svg width="67" height="87" viewBox="0 0 67 87" fill="none" xmlns="http://www.w3.org/2000/svg">
<path d="M13.1093 15.7307C13.5714 16.3532 14.4458 16.4815 15.0651 16.0199L30.0544 4.91838C32.0889 3.41289 34.921 3.41289 36.9517 4.92029L51.939 16.0199C52.1902 16.2057 52.4816 16.2957 52.7712 16.2957C53.1969 16.2957 53.6207 16.0984 53.8929 15.7307C54.3551 15.112 54.2228 14.2348 53.6034 13.777L38.6161 2.67356C35.5998 0.442147 31.3966 0.442147 28.388 2.67356L13.3988 13.777C12.7795 14.2367 12.6491 15.112 13.1093 15.7307Z" fill="#FDBC30" stroke="#FDBC30" stroke-width="0.5"/>
<path d="M61.9751 15.0661C61.977 15.0087 62.0001 14.957 62.0001 14.8995C62.0001 12.5666 59.8639 10.5861 55.655 9.01738C54.9321 8.74731 54.1248 9.11315 53.8544 9.83716C53.5841 10.5593 53.9522 11.3656 54.6771 11.6338C57.6051 12.7255 58.8764 13.8518 59.1468 14.6045C59.1065 14.7865 59.1027 14.9742 59.141 15.1657C58.4852 17.6806 48.6561 21.113 33.5019 21.113C18.3478 21.113 8.51859 17.6825 7.86279 15.1657C7.89923 14.9742 7.89731 14.7903 7.85704 14.6084C8.13508 13.8077 9.53679 12.6068 12.8138 11.4556C13.5425 11.2009 13.9279 10.4041 13.671 9.67627C13.4178 8.94843 12.6202 8.5596 11.8896 8.8201C7.31822 10.4194 5.00186 12.4651 5.00186 14.8995C5.00186 14.957 5.02487 15.0106 5.02679 15.0661C2.40362 24.5377 1 35.2408 1 46.0913C1 57.258 2.46307 68.2637 5.21662 77.8674C6.60682 83.4545 20.8501 86.0001 33.5 86.0001C46.1575 86.0001 60.4008 83.4526 61.7584 77.9153C64.5331 68.2771 66 57.2733 66 46.0894C66.0019 35.2408 64.5983 24.5377 61.9751 15.0661ZM33.5019 23.9056C44.449 23.9056 55.4709 22.0496 59.9234 18.4793C60.1976 19.5941 60.4948 20.6877 60.7345 21.8331C60.6194 22.0362 60.5351 22.2584 60.5351 22.5093C60.5351 24.6775 51.2505 28.7247 33.5 28.7247C15.7495 28.7247 6.46492 24.6794 6.46492 22.5093C6.46492 22.2584 6.38055 22.0362 6.2655 21.8331C6.50711 20.6897 6.80241 19.5941 7.07853 18.4793C11.5329 22.0496 22.5548 23.9056 33.5019 23.9056ZM59.0586 77.197C58.4546 79.6544 49.007 83.2075 33.5019 83.2075C18.0007 83.2075 8.54543 79.6525 7.92032 77.1472C5.22429 67.7408 3.79957 57.0013 3.79957 46.0913C3.79957 39.1692 4.43619 32.3485 5.54643 25.8516C9.99699 29.5789 21.7897 31.5173 33.5019 31.5173C45.2141 31.5173 57.0088 29.5789 61.4574 25.8516C62.5696 32.3485 63.2043 39.1711 63.2043 46.0933C63.2062 57.0166 61.7776 67.7542 59.0586 77.197Z" fill="#FDBC30" stroke="#FDBC30" stroke-width="0.5"/>
<path d="M48.7617 42.2107C48.7022 41.5403 48.1653 41.004 47.4942 40.9446C47.2354 40.9236 41.2239 40.4256 37.6689 43.9728C36.8884 44.7524 36.3323 45.6565 35.8952 46.5854C34.5433 43.5974 32.1598 41.548 32.0179 41.4311C31.4983 41.0002 30.7447 41.0002 30.227 41.4311C30.0467 41.5825 26.1791 44.9056 25.5521 49.3416C25.1455 48.9356 24.8483 48.677 24.8023 48.6406C24.2827 48.2096 23.5291 48.2096 23.0114 48.6406C22.8138 48.8034 18.2061 52.7031 18.2061 57.7233C18.2061 61.2936 20.5224 64.2681 21.9395 65.764L20.2386 67.463C19.6921 68.0089 19.6921 68.8919 20.2386 69.4377C20.5109 69.7097 20.8695 69.8476 21.2281 69.8476C21.5866 69.8476 21.9433 69.7116 22.2175 69.4377L23.9183 67.7388C25.4159 69.1523 28.3938 71.4642 31.9681 71.4642C36.992 71.4642 40.896 66.8635 41.0609 66.6681C41.4943 66.149 41.4943 65.3963 41.0609 64.8791C41.0226 64.8332 40.7656 64.5363 40.3591 64.1302C44.7982 63.5039 48.127 59.6425 48.2785 59.4606C48.7118 58.9415 48.7118 58.1887 48.2785 57.6716C48.1615 57.5318 46.1136 55.1567 43.1319 53.8045C44.058 53.3677 44.9535 52.8027 45.7301 52.027C49.2813 48.4759 48.7847 42.4635 48.7617 42.2107ZM31.1205 44.4517C32.2423 45.666 34.0237 47.9855 34.0237 50.5119C34.0237 53.0555 32.2461 55.3655 31.1225 56.5722C30.0007 55.3655 28.2212 53.0555 28.2212 50.5119C28.2232 47.9683 29.9969 45.6603 31.1205 44.4517ZM23.9049 51.6611C25.0267 52.8717 26.808 55.195 26.808 57.7214C26.808 60.265 25.0305 62.5749 23.9068 63.7836C22.7813 62.5769 21.0037 60.2669 21.0037 57.7214C21.0037 55.1778 22.7793 52.8698 23.9049 51.6611ZM31.9662 68.6697C29.4197 68.6697 27.1072 66.8941 25.8972 65.7717C27.1053 64.6474 29.4178 62.8718 31.9662 62.8718C34.5126 62.8718 36.8232 64.6455 38.0293 65.7698C36.8175 66.8903 34.4934 68.6697 31.9662 68.6697ZM39.1837 61.4602C36.6372 61.4602 34.3247 59.6846 33.1148 58.5622C34.3228 57.4379 36.6353 55.6624 39.1837 55.6624C41.7302 55.6624 44.0408 57.436 45.2469 58.5603C44.035 59.6827 41.7091 61.4602 39.1837 61.4602ZM37.4081 52.2856C37.4675 50.6383 37.8453 47.748 39.6477 45.9476C41.4483 44.149 44.3399 43.7736 45.9909 43.7123C45.9314 45.3577 45.5537 48.2499 43.7512 50.0484C41.9507 51.8489 39.0552 52.2262 37.4081 52.2856Z" fill="#FDBC30" stroke="#FDBC30" stroke-width="0.5"/>
</svg>
