<svg width="89" height="87" viewBox="0 0 89 87" fill="none" xmlns="http://www.w3.org/2000/svg">
<path d="M59.5647 8.3441C60.4887 8.3441 61.2378 7.58298 61.2378 6.6441C61.2378 5.70521 60.4887 4.94409 59.5647 4.94409C58.6407 4.94409 57.8916 5.70521 57.8916 6.6441C57.8916 7.58298 58.6407 8.3441 59.5647 8.3441Z" fill="#FDBC30" stroke="#FDBC30" stroke-width="0.5"/>
<path d="M52.0123 1.92764C49.5674 1.31205 47.0399 1 44.5 1C27.1634 1 13.059 15.4859 13.059 33.2916V36.4723C11.2915 37.4235 9.85411 38.9919 9.02408 40.7948H6.01923C3.25159 40.7948 1 43.0827 1 45.8948V52.8225C1 55.6347 3.25159 57.9226 6.01923 57.9226H9.02408C10.9619 62.3288 16.423 64.5741 20.8328 62.7636C22.8021 62.0033 24.1251 60.0547 24.1251 57.915V40.8024C24.1251 38.6626 22.8021 36.7141 20.8328 35.9538C19.1594 35.308 17.3675 35.1744 15.6615 35.5212V33.2916C15.6615 16.9441 28.5983 3.64445 44.5 3.64445C46.8291 3.64445 49.146 3.93062 51.3862 4.49464C52.0835 4.66899 52.7894 4.23813 52.9622 3.52923C53.1353 2.82052 52.7098 2.10349 52.0123 1.92764ZM8.23364 55.2781H6.01923C4.68672 55.2781 3.60256 54.1765 3.60256 52.8225V45.8948C3.60256 44.5409 4.68672 43.4393 6.01923 43.4393H8.23364C8.16467 43.9047 8.12526 44.3771 8.12526 44.8552V53.8624C8.12526 54.3403 8.16486 54.8127 8.23364 55.2781ZM19.9084 38.426C20.8739 38.7986 21.5225 39.7537 21.5225 40.8024V57.915C21.5225 58.9637 20.8739 59.9187 19.9084 60.2914C15.661 62.0896 10.5836 58.5357 10.7278 53.8624V44.8552C10.5797 40.1823 15.6764 36.6232 19.9084 38.426Z" fill="#FDBC30" stroke="#FDBC30" stroke-width="0.5"/>
<path d="M82.9809 40.7948H79.9775C79.1477 38.9909 77.7096 37.4214 75.9411 36.47V33.2916C75.9411 24.5127 72.5704 16.3019 66.4499 10.1717C65.9382 9.65924 65.1143 9.66528 64.6097 10.1851C64.1052 10.7051 64.1112 11.5425 64.6229 12.0549C70.2432 17.6844 73.3386 25.2262 73.3386 33.2916V35.5195C71.6329 35.1735 69.8409 35.3074 68.1656 35.9543C66.1973 36.7142 64.8748 38.6619 64.8748 40.8007V57.9148C64.8748 60.0545 66.1979 62.0031 68.1671 62.7634C69.6568 63.3367 71.2273 63.5129 72.7825 63.2938C71.0024 70.7128 65.1306 76.3564 57.7613 77.6513C57.0554 74.8385 54.5412 72.7521 51.5562 72.7521H45.7807C42.2502 72.7521 39.3777 75.6706 39.3777 79.258V79.4941C39.3777 83.0815 42.2502 86 45.7807 86H51.5562C54.8165 86 57.5137 83.5106 57.9078 80.3046C66.7702 78.9782 74.2011 71.4026 75.6193 62.4151C77.524 61.481 79.0984 59.8356 79.9756 57.9223H82.9809C85.7485 57.9223 88.0001 55.6345 88.0001 52.8223V45.8946C88.0001 43.0826 85.7485 40.7948 82.9809 40.7948ZM55.3571 79.4943C55.3571 81.6234 53.6522 83.3557 51.5566 83.3557H45.7811C43.6855 83.3557 41.9806 81.6234 41.9806 79.4943V79.2582C41.9806 77.129 43.6855 75.3967 45.7811 75.3967H51.5566C53.6522 75.3967 55.3571 77.129 55.3571 79.2582V79.4943ZM78.2723 53.8622C78.4165 58.5359 73.3391 62.0893 69.0917 60.2912C68.1262 59.9185 67.4776 58.9635 67.4776 57.9148V40.8007C67.4776 39.7529 68.1256 38.7986 69.0951 38.4246C73.3257 36.6222 78.4206 40.1807 78.2723 44.8514V53.8622ZM85.3975 52.8225C85.3975 54.1765 84.3134 55.2781 82.9809 55.2781H80.7665C80.8354 54.8129 80.8748 54.3404 80.8748 53.8624V44.8516C80.8748 44.3748 80.8356 43.9035 80.767 43.4393H82.9809C84.3134 43.4393 85.3975 44.5409 85.3975 45.8948V52.8225Z" fill="#FDBC30" stroke="#FDBC30" stroke-width="0.5"/>
</svg>
