<svg width="87" height="72" viewBox="0 0 87 72" fill="none" xmlns="http://www.w3.org/2000/svg">
<path d="M44.9326 43.4332L40.7303 51.3094H51.618V43.4332H44.9326ZM49.7079 49.3404H44.073L46.0787 45.4023H49.7079V49.3404ZM72.5337 58.398C71.1966 58.398 70.1461 59.481 70.1461 60.8593C70.1461 62.2377 71.1966 63.3206 72.5337 63.3206C73.8708 63.3206 74.9214 62.2377 74.9214 60.8593C74.9214 59.481 73.7753 58.398 72.5337 58.398ZM72.5337 61.3516C72.2472 61.3516 72.0562 61.1547 72.0562 60.8593C72.0562 60.564 72.2472 60.3671 72.5337 60.3671C72.8202 60.3671 73.0113 60.564 73.0113 60.8593C73.0113 61.1547 72.7247 61.3516 72.5337 61.3516ZM53.5281 28.6653V39.4951H42.545L33.4719 53.9676V60.1702H38.1517C38.1517 60.3671 38.1517 60.6624 38.1517 60.8593C38.1517 64.6005 41.1124 67.751 44.8371 67.751C48.4663 67.751 51.5225 64.699 51.5225 60.8593C51.5225 60.6624 51.5225 60.3671 51.5225 60.1702H65.9438C65.9438 60.3671 65.9438 60.6624 65.9438 60.8593C65.9438 64.6005 68.9045 67.751 72.6292 67.751C76.2584 67.751 79.3146 64.699 79.3146 60.8593C79.3146 60.6624 79.3146 60.3671 79.3146 60.1702H86V28.6653H53.5281ZM44.8371 65.782C42.2584 65.782 40.0618 63.616 40.0618 60.8593C40.0618 58.1027 42.1629 55.9367 44.8371 55.9367C47.5113 55.9367 49.6124 58.1027 49.6124 60.8593C49.6124 63.616 47.4157 65.782 44.8371 65.782ZM44.8371 53.9676C42.0674 53.9676 39.6798 55.7398 38.7247 58.2011H35.382V54.5584L43.5 41.4641H53.5281V58.2011H50.9495C49.8989 55.7398 47.6068 53.9676 44.8371 53.9676ZM72.5337 65.782C69.9551 65.782 67.7584 63.616 67.7584 60.8593C67.7584 58.1027 69.8596 55.9367 72.5337 55.9367C75.1124 55.9367 77.309 58.1027 77.309 60.8593C77.309 63.616 75.1124 65.782 72.5337 65.782ZM84.0899 58.2011H78.6461C77.5955 55.7398 75.3034 53.9676 72.5337 53.9676C69.7641 53.9676 67.3764 55.7398 66.4214 58.2011H55.4382V41.4641V40.4796V30.6343H84.0899V58.2011ZM44.8371 58.398C43.5 58.398 42.4495 59.481 42.4495 60.8593C42.4495 62.2377 43.5 63.3206 44.8371 63.3206C46.1742 63.3206 47.2247 62.2377 47.2247 60.8593C47.2247 59.481 46.0787 58.398 44.8371 58.398ZM44.8371 61.3516C44.5506 61.3516 44.3596 61.1547 44.3596 60.8593C44.3596 60.564 44.5506 60.3671 44.8371 60.3671C45.1236 60.3671 45.3146 60.564 45.3146 60.8593C45.3146 61.1547 45.0281 61.3516 44.8371 61.3516Z" fill="#FDBC30" stroke="#FDBC30" stroke-width="0.5"/>
<path d="M19.0507 56.1335L19.8147 54.9521C20.4833 53.8691 36.7192 28.7637 36.7192 19.1153C36.7192 9.07312 28.7922 1 18.9552 1C9.11808 1 1.28662 9.07312 1.28662 19.1153C1.28662 28.7637 17.5226 53.8691 18.1911 54.9521L19.0507 56.1335ZM19.0507 2.8706C27.7417 2.8706 34.9046 10.1561 34.9046 19.0169C34.9046 26.8931 22.3934 47.2728 19.0507 52.4908C15.708 47.2728 3.19673 26.8931 3.19673 19.0169C3.19673 10.1561 10.3597 2.8706 19.0507 2.8706ZM33.1855 19.3122C33.1855 11.3375 26.8821 4.83966 19.0507 4.83966C11.2192 4.83966 4.91583 11.3375 4.91583 19.3122C4.91583 27.2869 11.2192 33.7848 19.0507 33.7848C26.8821 33.7848 33.1855 27.2869 33.1855 19.3122ZM6.82595 19.3122C6.82595 12.4205 12.2698 6.80871 19.0507 6.80871C25.8316 6.80871 31.2754 12.4205 31.2754 19.3122C31.2754 26.2039 25.8316 31.8157 19.0507 31.8157C12.2698 31.8157 6.82595 26.2039 6.82595 19.3122ZM27.7417 15.2756L19.1462 10.8453L10.5507 15.2756V24.7271H27.7417V15.2756ZM22.0113 22.7581H16.281V19.8045H22.0113V22.7581ZM25.8316 22.7581H23.9215V17.8354H14.3709V22.7581H12.4608V16.4571L19.1462 13.0112L25.8316 16.4571V22.7581Z" fill="#FDBC30" stroke="#FDBC30" stroke-width="0.5"/>
<path d="M32.0393 63.2222C29.8427 59.3825 25.8315 57.2166 21.0562 57.2166H1V59.1856H21.0562C25.1629 59.1856 28.5056 60.9578 30.4157 64.2067C32.8989 68.5386 36.8146 70.9999 41.1124 70.9999H86V69.0309H41.1124C37.4831 69.0309 34.236 66.9634 32.0393 63.2222Z" fill="#FDBC30" stroke="#FDBC30" stroke-width="0.5"/>
</svg>
