<svg width="107" height="87" viewBox="0 0 107 87" fill="none" xmlns="http://www.w3.org/2000/svg">
<path fill-rule="evenodd" clip-rule="evenodd" d="M79.9695 14.5138C81.3807 14.5138 82.5287 15.6551 82.5287 17.0603C82.5287 18.4632 81.3807 19.6068 79.9695 19.6068C78.5572 19.6068 77.4057 18.4632 77.4057 17.0603C77.4069 15.6551 78.5572 14.5138 79.9695 14.5138ZM79.9695 22.8691C83.1899 22.8691 85.8102 20.2641 85.8102 17.0603C85.8102 13.8577 83.1899 11.2526 79.9695 11.2526C76.748 11.2526 74.1254 13.8577 74.1254 17.0603C74.1265 20.2641 76.748 22.8691 79.9695 22.8691ZM89.8198 59.0607C90.0621 61.0303 89.5313 62.8266 88.2864 64.2559C86.8221 65.9364 84.391 67.0674 81.623 67.3828V69.4568C81.623 70.3572 80.8891 71.0879 79.9822 71.0879C79.0753 71.0879 78.3415 70.3584 78.3415 69.4568V67.3587C74.2442 66.8001 71.0573 64.2238 70.1366 60.5451C69.9185 59.671 70.4527 58.7866 71.3308 58.5675C72.2111 58.3519 73.1007 58.8807 73.32 59.7559C74.1692 63.1444 77.6007 64.2742 80.2811 64.2089C82.5818 64.1538 84.7499 63.3359 85.8056 62.1235C86.4448 61.3882 86.6941 60.5141 86.5637 59.4542C86.2579 56.9467 84.1545 55.5071 79.7411 54.7879C72.7165 53.6396 71.0827 50.1009 70.9477 47.3318C70.7608 43.4948 73.4619 40.2796 77.6699 39.3309C77.8915 39.2816 78.1142 39.2392 78.3415 39.2036V37.0826C78.3415 36.1822 79.0753 35.4515 79.9822 35.4515C80.888 35.4515 81.623 36.181 81.623 37.0826V39.1887C84.6275 39.6315 87.5906 41.3624 89.0721 44.8667C89.4217 45.6972 89.0283 46.6528 88.1952 47.0015C87.3575 47.3513 86.3964 46.9602 86.0456 46.1285C84.6229 42.7607 81.1787 41.8866 78.3957 42.5129C76.2911 42.9867 74.0942 44.4618 74.2246 47.1735C74.2673 48.0235 74.3919 50.609 80.2718 51.568C82.4526 51.9236 89.0825 53.0064 89.8198 59.0607ZM99.8408 81.1318C101.427 81.1318 102.717 79.8482 102.717 78.2698L102.694 23.3991C102.694 22.5434 102.383 21.8459 101.741 21.2724L85.7825 7.00957C83.5972 5.05608 81.9114 4.26116 79.9695 4.26116C79.9661 4.26116 79.9661 4.26116 79.9649 4.26116C78.0207 4.26116 76.3373 5.05838 74.1507 7.01416L58.2013 21.2873C57.5598 21.8631 57.2471 22.5583 57.2471 23.4163L57.2563 41.7364H59.2028C62.8397 41.7364 65.7981 44.6786 65.7981 48.2919C65.7981 49.7258 65.332 51.053 64.5451 52.1335C66.8758 53.1464 68.5096 55.4601 68.5096 58.1454C68.5096 60.5451 67.2058 62.6488 65.2662 63.7902C66.2251 64.9304 66.8054 66.3986 66.8054 67.9988C66.8054 71.447 64.1147 74.2814 60.7109 74.5372C61.2878 75.5099 61.6166 76.6432 61.6166 77.8523C61.6166 79.0521 61.289 80.1774 60.7201 81.1455L99.8408 81.1318ZM33.2416 81.1467C27.5636 81.1467 23.8032 79.7507 20.1663 78.4006C19.069 77.9922 17.944 77.5747 16.7787 77.2019V50.0332L16.9367 50.0309C19.804 50.0057 22.0528 48.8483 23.6244 46.5897C23.9278 46.1515 24.2013 45.7569 24.4471 45.3978C26.652 42.1986 26.652 42.1986 30.0466 39.9962C36.6004 35.7371 37.0827 33.6196 39.1169 24.7159C39.148 24.5829 39.1792 24.451 39.2092 24.3145C40.5603 25.0279 41.4823 26.1899 42.0096 27.8337C43.558 32.6652 41.1153 40.1075 39.2057 42.2984C38.7857 42.7813 38.6877 43.4627 38.9542 44.0431C39.2196 44.6247 39.8046 44.9987 40.4473 44.9987H59.204C61.0317 44.9987 62.5178 46.4772 62.5178 48.2931C62.5178 50.1101 61.0317 51.5909 59.204 51.5909H46.2695C45.3637 51.5909 44.6299 52.3205 44.6299 53.2209C44.6299 54.1203 45.3637 54.8521 46.2695 54.8521H61.9109C63.7385 54.8521 65.227 56.3307 65.227 58.1465C65.227 59.9635 63.7385 61.4409 61.9109 61.4409H46.2695C45.3637 61.4409 44.6299 62.1728 44.6299 63.0721C44.6299 63.9726 45.3637 64.7033 46.2695 64.7033H60.209C62.0366 64.7033 63.5228 66.183 63.5228 68C63.5228 69.8169 62.0355 71.2944 60.209 71.2944H46.2695C45.3637 71.2944 44.6299 72.0262 44.6299 72.9255C44.6299 73.826 45.3637 74.5567 46.2695 74.5567H55.0202C56.8479 74.5567 58.334 76.0353 58.334 77.8534C58.334 79.6704 56.8467 81.1467 55.0202 81.1467H33.2416ZM13.4972 82.3156C13.4972 82.5461 13.3022 82.7377 13.0726 82.7377H4.70611C4.47535 82.7377 4.2815 82.5461 4.2815 82.3156V46.3797C4.2815 46.1515 4.47535 45.9576 4.70611 45.9576H13.0726C13.3022 45.9576 13.4972 46.1515 13.4972 46.3797V82.3156ZM105.977 23.3991C105.977 21.6131 105.268 20.0393 103.933 18.8463L87.9748 4.58578C85.9902 2.81239 83.4876 1 79.9684 1C79.9649 1 79.9637 1 79.9637 1C76.4422 1 73.9384 2.81469 71.9561 4.59037L56.0056 18.8624C54.6706 20.0576 53.9679 21.6314 53.9679 23.4174L53.976 41.7364H43.3838C45.2991 37.7766 46.6364 31.5262 45.1353 26.8438C44.0807 23.5494 41.7557 21.3779 38.4154 20.5612C37.9884 20.458 37.5373 20.5291 37.1646 20.7562C36.7919 20.9856 36.5254 21.3538 36.4273 21.7806C36.245 22.5652 36.0765 23.3016 35.9185 23.9944C33.9477 32.6193 33.695 33.7297 28.2524 37.2673C24.4078 39.7645 24.1332 40.0868 21.7413 43.5568C21.4967 43.9089 21.229 44.3012 20.9267 44.7348C19.9598 46.1274 18.7206 46.7548 16.9194 46.7698L16.781 46.772V46.3809C16.781 44.3494 15.1172 42.6965 13.0749 42.6965H4.70611C2.66267 42.6965 1 44.3494 1 46.3809V82.3156C1 84.3482 2.66267 86 4.70611 86H13.0726C15.1148 86 16.7787 84.3482 16.7787 82.3156V80.6443C17.5183 80.9012 18.2567 81.1742 19.0171 81.4576C22.7463 82.8421 26.9705 84.409 33.2416 84.409H55.0213C55.949 84.409 56.8329 84.2174 57.6336 83.871C58.4217 84.2243 59.2744 84.409 60.1501 84.409C60.1501 84.409 60.1501 84.409 60.1524 84.409L99.8431 84.3952C103.24 84.3952 106.001 81.6468 106 78.2698L105.977 23.3991Z" fill="#FDBC30" stroke="#FDBC30" stroke-width="0.5"/>
</svg>
