<svg width="25" height="28" viewBox="0 0 25 28" fill="none" xmlns="http://www.w3.org/2000/svg">
<path d="M23.1947 9.02C22.8895 8.67048 22.5128 8.39051 22.0902 8.19902C21.6675 8.00753 21.2087 7.90897 20.7447 7.91H18.6547V6.65C18.6547 5.77671 18.4827 4.91197 18.1485 4.10515C17.8143 3.29834 17.3245 2.56525 16.7069 1.94774C16.0894 1.33023 15.3563 0.840395 14.5495 0.506201C13.7427 0.172007 12.878 0 12.0047 0C11.1314 0 10.2667 0.172007 9.45984 0.506201C8.65303 0.840395 7.91994 1.33023 7.30243 1.94774C6.68492 2.56525 6.19508 3.29834 5.86089 4.10515C5.5267 4.91197 5.35469 5.77671 5.35469 6.65V7.91H3.26469C2.80191 7.91061 2.34453 8.00947 1.92281 8.20005C1.50109 8.39062 1.12464 8.66857 0.818365 9.01549C0.512086 9.36242 0.282958 9.77043 0.146137 10.2125C0.00931568 10.6546 -0.0320799 11.1207 0.0246886 11.58L1.72469 25.14C1.82216 25.9284 2.20416 26.6541 2.79892 27.1807C3.39369 27.7074 4.16028 27.9987 4.95469 28H19.0547C19.8491 27.9987 20.6157 27.7074 21.2105 27.1807C21.8052 26.6541 22.1872 25.9284 22.2847 25.14L23.9847 11.58C24.0412 11.1217 24.0001 10.6566 23.8639 10.2154C23.7277 9.77414 23.4997 9.36674 23.1947 9.02ZM7.35469 6.65C7.35469 5.41674 7.8446 4.234 8.71664 3.36195C9.58869 2.48991 10.7714 2 12.0047 2C13.2379 2 14.4207 2.48991 15.2927 3.36195C16.1648 4.234 16.6547 5.41674 16.6547 6.65V7.91H7.35469V6.65ZM21.9947 11.33L20.3047 24.9C20.2637 25.2032 20.1148 25.4813 19.8851 25.6834C19.6555 25.8855 19.3606 25.9979 19.0547 26H4.95469C4.64879 25.9979 4.35391 25.8855 4.12427 25.6834C3.89462 25.4813 3.74563 25.2032 3.70469 24.9L2.01469 11.33C1.99146 11.1524 2.00646 10.9718 2.0587 10.8005C2.11093 10.6291 2.19919 10.4709 2.31756 10.3364C2.43593 10.202 2.58167 10.0944 2.74502 10.0208C2.90837 9.94727 3.08555 9.90948 3.26469 9.91H5.35469V12.3C5.35469 12.5652 5.46005 12.8196 5.64758 13.0071C5.83512 13.1946 6.08947 13.3 6.35469 13.3C6.61991 13.3 6.87426 13.1946 7.0618 13.0071C7.24933 12.8196 7.35469 12.5652 7.35469 12.3V9.91H16.6547V12.3C16.6547 12.5652 16.76 12.8196 16.9476 13.0071C17.1351 13.1946 17.3895 13.3 17.6547 13.3C17.9199 13.3 18.1743 13.1946 18.3618 13.0071C18.5493 12.8196 18.6547 12.5652 18.6547 12.3V9.91H20.7447C20.9238 9.90948 21.101 9.94727 21.2644 10.0208C21.4277 10.0944 21.5734 10.202 21.6918 10.3364C21.8102 10.4709 21.8984 10.6291 21.9507 10.8005C22.0029 10.9718 22.0179 11.1524 21.9947 11.33Z" fill="#ffffff"/>
</svg>
