<svg width="21" height="21" viewBox="0 0 21 21" fill="none" xmlns="http://www.w3.org/2000/svg">
<g id="Layer 3">
<path id="Vector" d="M10.7053 0.744629C8.72751 0.744629 6.79411 1.33112 5.14962 2.42993C3.50513 3.52875 2.22341 5.09053 1.46653 6.91779C0.709655 8.74505 0.511622 10.7557 0.897474 12.6955C1.28333 14.6353 2.23573 16.4172 3.63426 17.8157C5.03278 19.2142 6.81461 20.1666 8.75442 20.5525C10.6942 20.9383 12.7049 20.7403 14.5322 19.9834C16.3594 19.2265 17.9212 17.9448 19.02 16.3003C20.1188 14.6558 20.7053 12.7224 20.7053 10.7446C20.7025 8.09333 19.648 5.55144 17.7733 3.67669C15.8985 1.80194 13.3566 0.747465 10.7053 0.744629ZM10.7053 19.3161C9.01006 19.3161 7.35286 18.8133 5.9433 17.8715C4.53373 16.9297 3.43511 15.591 2.78636 14.0248C2.13761 12.4585 1.96787 10.7351 2.2986 9.07242C2.62933 7.40973 3.44567 5.88245 4.64441 4.68371C5.84315 3.48498 7.37043 2.66863 9.03312 2.3379C10.6958 2.00717 12.4192 2.17691 13.9855 2.82566C15.5517 3.47441 16.8904 4.57303 17.8322 5.9826C18.774 7.39216 19.2768 9.04936 19.2768 10.7446C19.2743 13.0172 18.3704 15.1959 16.7635 16.8028C15.1566 18.4097 12.9779 19.3136 10.7053 19.3161Z" fill="#FFFAF0"/>
<path id="Vector_2" d="M14.486 7.27253L8.99104 12.7682L6.84818 11.1625C6.77314 11.1062 6.68775 11.0653 6.59688 11.042C6.50602 11.0187 6.41145 11.0136 6.3186 11.0269C6.13106 11.0536 5.96185 11.1538 5.84818 11.3054C5.73452 11.4569 5.68571 11.6474 5.7125 11.835C5.7393 12.0225 5.83949 12.1917 5.99104 12.3054L8.62818 14.2832C8.76574 14.3864 8.93587 14.4364 9.10736 14.4242C9.27885 14.412 9.44019 14.3384 9.56175 14.2168L15.496 8.28253C15.6262 8.14781 15.6981 7.96738 15.6965 7.7801C15.6949 7.59282 15.6198 7.41367 15.4873 7.28123C15.3549 7.1488 15.1757 7.07368 14.9885 7.07205C14.8012 7.07042 14.6208 7.14242 14.486 7.27253Z" fill="#FFFAF0"/>
</g>
</svg>
