<svg width="16" height="21" viewBox="0 0 16 21" fill="none" xmlns="http://www.w3.org/2000/svg">
<path d="M12.9384 2.58428C12.2907 1.92363 11.5211 1.39945 10.6736 1.04178C9.82616 0.684112 8.91759 0.5 8 0.5C7.08241 0.5 6.17384 0.684112 5.32639 1.04178C4.47895 1.39945 3.7093 1.92363 3.06158 2.58428C1.74977 3.91911 1.00904 5.7261 1.00027 7.6128C0.96515 11.9054 4.3568 16.0518 6.3832 18.5292C7.03673 19.3283 7.55317 19.9595 7.76431 20.3571C7.78727 20.4003 7.82129 20.4364 7.86278 20.4616C7.90427 20.4867 7.95169 20.5 8 20.5C8.04831 20.5 8.09573 20.4867 8.13722 20.4616C8.17871 20.4364 8.21273 20.4003 8.23569 20.3571C8.44726 19.9599 8.96327 19.3287 9.6168 18.5292C11.6432 16.0518 15.0349 11.9056 14.9997 7.6128C14.991 5.7261 14.2502 3.91911 12.9384 2.58428ZM9.20467 18.1808C8.70346 18.7937 8.28075 19.3104 8 19.7182C7.71925 19.3096 7.29654 18.7935 6.79533 18.1808C4.81569 15.7608 1.50274 11.7106 1.53617 7.61817C1.52639 6.74909 1.68634 5.88667 2.00677 5.08087C2.3272 4.27507 2.80173 3.54189 3.40289 2.92381C4.00404 2.30573 4.71987 1.81503 5.5089 1.48013C6.29794 1.14523 7.14451 0.972787 7.99958 0.972787C8.85464 0.972787 9.70121 1.14523 10.4902 1.48013C11.2793 1.81503 11.9951 2.30573 12.5963 2.92381C13.1974 3.54189 13.672 4.27507 13.9924 5.08087C14.3128 5.88667 14.4728 6.74909 14.463 7.61817C14.4973 11.7106 11.1843 15.7608 9.20467 18.1808ZM8 4.04168C7.30466 4.04163 6.62492 4.25118 6.04674 4.64383C5.46857 5.03647 5.01793 5.59457 4.75181 6.24755C4.4857 6.90053 4.41606 7.61905 4.5517 8.31226C4.68735 9.00547 5.02218 9.64223 5.51387 10.142C6.00555 10.6418 6.63199 10.9821 7.31398 11.12C7.99596 11.2579 8.70285 11.1871 9.34526 10.9166C9.98766 10.6461 10.5367 10.188 10.923 9.60035C11.3093 9.01266 11.5155 8.32173 11.5154 7.61495C11.5144 6.66759 11.1436 5.75934 10.4846 5.08946C9.82556 4.41957 8.93202 4.04276 8 4.04168ZM8 10.6437C7.41066 10.6438 6.83454 10.4662 6.3445 10.1334C5.85445 9.8006 5.4725 9.32759 5.24694 8.77415C5.02138 8.22072 4.96234 7.61173 5.07729 7.0242C5.19224 6.43666 5.47602 5.89696 5.89273 5.47336C6.30944 5.04976 6.84038 4.76128 7.4184 4.64439C7.99641 4.52751 8.59555 4.58748 9.14003 4.81671C9.68452 5.04595 10.1499 5.43415 10.4773 5.93223C10.8048 6.43032 10.9795 7.0159 10.9795 7.61495C10.9786 8.41791 10.6644 9.18773 10.1059 9.75553C9.54729 10.3233 8.78996 10.6427 8 10.6437Z" fill="#FFFAF0" stroke="#FFFAF0"/>
</svg>
