<svg width="19" height="15" viewBox="0 0 19 15" fill="none" xmlns="http://www.w3.org/2000/svg">
<path d="M15.6364 1H2.90909C1.8697 1 1 1.87986 1 2.9797V12.0203C1 13.0981 1.84848 14 2.90909 14H15.6364C16.6758 14 17.5455 13.1201 17.5455 12.0203V2.9797C17.5455 1.87986 16.697 1 15.6364 1ZM15.6364 1.43993C15.997 1.43993 16.3364 1.57191 16.5909 1.79188L10.3121 8.30288C9.7394 8.89679 8.80606 8.89679 8.23333 8.30288L1.95455 1.79188C2.20909 1.57191 2.54849 1.43993 2.90909 1.43993H15.6364ZM1.42424 2.9797C1.42424 2.67174 1.50909 2.38579 1.67879 2.14382L6.81212 7.46701C6.79091 7.46701 6.7697 7.489 6.72727 7.511L1.63636 12.7902C1.50909 12.5702 1.44545 12.3063 1.44545 12.0203V2.9797H1.42424ZM2.90909 13.5381C2.52727 13.5381 2.16667 13.3841 1.89091 13.1201L7.02424 7.79695C7.04546 7.77496 7.06667 7.75296 7.06667 7.70897L7.93636 8.61083C8.29697 8.98477 8.78485 9.18274 9.27273 9.18274C9.76061 9.18274 10.2485 8.98477 10.6091 8.61083L11.4788 7.70897C11.4788 7.73096 11.5 7.77496 11.5212 7.79695L16.6545 13.1201C16.4 13.3841 16.0394 13.5381 15.6364 13.5381H2.90909ZM17.1212 11.9983C17.1212 12.2843 17.0576 12.5482 16.9303 12.7682L11.8394 7.489C11.8182 7.46701 11.797 7.44501 11.7545 7.44501L16.8879 2.12183C17.0364 2.36379 17.1424 2.64975 17.1424 2.9577L17.1212 11.9983Z" fill="#FFFAF0" stroke="#FFFAF0"/>
</svg>
