<svg width="22" height="22" viewBox="0 0 22 22" fill="none" xmlns="http://www.w3.org/2000/svg">
<path d="M20.5307 16.1184C20.1672 15.827 18.3859 14.6248 17.1862 13.8233C16.8227 13.5683 16.5318 13.3862 16.3864 13.2769C16.1683 13.1311 15.9502 13.0583 15.7684 13.0583C15.2231 13.0583 14.9686 13.5683 14.8959 13.7505C14.3506 14.7705 13.8053 15.3534 13.5508 15.3534C13.1146 15.0984 11.1879 13.204 9.98821 12.0018C8.78855 10.7996 6.89817 8.90528 6.6437 8.43169C6.6437 8.43169 6.6437 8.39526 6.6437 8.35883C6.75276 8.0674 7.40712 7.52095 8.24325 7.08379C8.60678 6.90164 8.8249 6.64663 8.89761 6.39162C8.97031 6.13661 8.89761 5.8816 8.67949 5.59016C8.60678 5.48087 8.38866 5.18944 8.17054 4.82514C7.40712 3.69581 6.1711 1.83789 5.88027 1.47359C5.69851 1.25501 5.48039 1 5.11685 1C4.93508 1 4.75332 1.07286 4.49884 1.14572L4.38978 1.18215C3.80813 1.3643 3.33553 1.58288 2.46305 2.45719C1.22704 3.69581 0.281847 5.29873 1.73598 8.72313C3.04471 11.8197 6.46193 15.2441 6.60734 15.3898C6.75276 15.5355 10.2063 18.9599 13.26 20.2714C14.4233 20.7814 15.4049 21 16.2774 21C17.8406 21 18.8221 20.235 19.4765 19.5428C20.3489 18.6685 20.5671 18.1949 20.7488 17.612L20.7852 17.5027C21.0396 16.9927 21.1851 16.6284 20.5307 16.1184ZM20.3126 17.3206L20.2762 17.4299C20.1308 17.867 19.9854 18.3042 19.1493 19.1421C18.2404 20.0528 17.4043 20.4171 16.3501 20.4171C15.5503 20.4171 14.6414 20.1985 13.5508 19.725C10.5699 18.4499 7.11629 14.9891 7.07994 14.9526C7.04358 14.9162 3.59001 11.4554 2.31764 8.46812C1.08162 5.55373 1.66328 4.13297 2.89929 2.85792C3.73542 2.02004 4.17166 1.87432 4.6079 1.7286L4.71696 1.69217C4.89873 1.61931 5.04415 1.58288 5.11685 1.58288C5.15321 1.58288 5.22591 1.58288 5.40768 1.80146C5.69851 2.16576 6.93452 4.02368 7.66159 5.11658C7.91607 5.48087 8.09783 5.77231 8.17054 5.8816C8.24325 5.99089 8.31595 6.10018 8.2796 6.20947C8.24325 6.31876 8.13419 6.42805 7.91607 6.53734C7.40712 6.79235 6.24381 7.48452 6.02569 8.17669C5.95298 8.35883 5.98934 8.54098 6.06204 8.72313C6.42558 9.37887 9.18844 12.1111 9.51562 12.4025C9.80644 12.7304 12.533 15.4991 13.1873 15.8634C13.2964 15.8998 13.4054 15.9362 13.5145 15.9362C14.2416 15.9362 14.9686 14.7341 15.3685 14.0055C15.5866 13.6047 15.7321 13.5683 16.0229 13.7505C16.1683 13.8233 16.4591 14.0419 16.8227 14.2969C17.9133 15.0255 19.7673 16.2641 20.1308 16.5556C20.458 16.8106 20.458 16.847 20.3126 17.3206Z" fill="#FFFAF0" stroke="#FFFAF0"/>
</svg>
