<svg width="24" height="24" viewBox="0 0 24 24" fill="none" xmlns="http://www.w3.org/2000/svg">
<path d="M17.7215 16.5112C19.3896 14.531 20.2283 11.9832 20.0628 9.39942C19.8972 6.81566 18.74 4.39571 16.8329 2.64473C14.9257 0.893745 12.4159 -0.0529425 9.82745 0.00228754C7.23898 0.0575176 4.77188 1.1104 2.94114 2.94114C1.1104 4.77188 0.0575176 7.23898 0.00228754 9.82745C-0.0529425 12.4159 0.893745 14.9257 2.64473 16.8329C4.39571 18.74 6.81566 19.8972 9.39942 20.0628C11.9832 20.2283 14.531 19.3896 16.5112 17.7215L22.5493 23.7597C22.7108 23.9156 22.927 24.0019 23.1514 24C23.3759 23.998 23.5906 23.908 23.7493 23.7493C23.908 23.5906 23.998 23.3759 24 23.1514C24.0019 22.927 23.9156 22.7108 23.7597 22.5493L17.7215 16.5112ZM1.75469 10.063C1.75469 8.41974 2.24196 6.81342 3.15489 5.44713C4.06781 4.08085 5.36539 3.01595 6.88352 2.38712C8.40166 1.75829 10.0722 1.59376 11.6838 1.91433C13.2955 2.23491 14.7759 3.02619 15.9378 4.18813C17.0997 5.35006 17.891 6.83045 18.2116 8.4421C18.5322 10.0537 18.3676 11.7243 17.7388 13.2424C17.11 14.7605 16.0451 16.0581 14.6788 16.971C13.3125 17.884 11.7062 18.3712 10.063 18.3712C7.86024 18.3687 5.74844 17.4926 4.19088 15.935C2.63332 14.3775 1.75718 12.2657 1.75469 10.063Z" fill="#FFFAF0"/>
</svg>
