<svg width="47" height="47" viewBox="0 0 47 47" fill="none" xmlns="http://www.w3.org/2000/svg">
<path d="M44.2309 14.7417C43.0972 12.0631 41.4776 9.65864 39.4095 7.59053C37.3455 5.52658 34.9369 3.90282 32.2583 2.7691C29.4842 1.59385 26.5399 1 23.5 1C20.4643 1 17.5158 1.59385 14.7417 2.7691C12.0631 3.90282 9.65864 5.52243 7.59053 7.59053C5.52658 9.65448 3.90282 12.0631 2.7691 14.7417C1.59385 17.5158 1 20.4601 1 23.5C1 26.5399 1.59385 29.4842 2.7691 32.2583C3.90282 34.9369 5.52243 37.3414 7.59053 39.4095C9.65448 41.4734 12.0631 43.0972 14.7417 44.2309C17.5158 45.4061 20.4601 46 23.5 46C26.5357 46 29.4842 45.4061 32.2583 44.2309C34.9369 43.0972 37.3414 41.4776 39.4095 39.4095C41.4734 37.3455 43.0972 34.9369 44.2309 32.2583C45.4061 29.4842 46 26.5399 46 23.5C46 20.4601 45.402 17.5158 44.2309 14.7417ZM23.5 44.7832C11.7641 44.7832 2.21678 35.2359 2.21678 23.5C2.21678 11.7641 11.7641 2.21678 23.5 2.21678C35.2359 2.21678 44.7832 11.7641 44.7832 23.5C44.7832 35.2359 35.2359 44.7832 23.5 44.7832Z" fill="#FFFAF0" stroke="#FFFAF0"/>
<path d="M35.5348 22.8937H25.3313C25.1403 22.3165 24.6835 21.8597 24.1062 21.6686V7.81481C24.1062 7.47843 23.8363 7.2085 23.4999 7.2085C23.1635 7.2085 22.8936 7.47843 22.8936 7.81481V21.6686C22.1253 21.922 21.5688 22.6487 21.5688 23.5C21.5688 24.5673 22.4326 25.4311 23.4999 25.4311C24.3554 25.4311 25.078 24.8746 25.3313 24.1063H35.5348C35.8712 24.1063 36.1411 23.8364 36.1411 23.5C36.1411 23.1636 35.8712 22.8937 35.5348 22.8937Z" fill="#FFFAF0" stroke="#FFFAF0"/>
</svg>
